<svg width="36" height="37" viewBox="0 0 36 37" fill="none" xmlns="http://www.w3.org/2000/svg">
<g id="u:image-plus">
<path id="Vector" d="M28.5 15.5C28.1022 15.5 27.7206 15.658 27.4393 15.9393C27.158 16.2206 27 16.6022 27 17V22.07L24.78 19.85C23.9961 19.0723 22.9367 18.6359 21.8325 18.6359C20.7283 18.6359 19.6689 19.0723 18.885 19.85L17.835 20.915L14.115 17.18C13.3311 16.4023 12.2717 15.9659 11.1675 15.9659C10.0633 15.9659 9.00387 16.4023 8.22 17.18L6 19.415V11C6 10.6022 6.15804 10.2206 6.43934 9.93934C6.72064 9.65804 7.10218 9.5 7.5 9.5H19.5C19.8978 9.5 20.2794 9.34196 20.5607 9.06066C20.842 8.77936 21 8.39782 21 8C21 7.60218 20.842 7.22064 20.5607 6.93934C20.2794 6.65804 19.8978 6.5 19.5 6.5H7.5C6.30653 6.5 5.16193 6.97411 4.31802 7.81802C3.47411 8.66193 3 9.80653 3 11V29.33C3.00395 30.4347 3.44456 31.4931 4.22573 32.2743C5.0069 33.0554 6.06526 33.496 7.17 33.5H25.83C26.2365 33.4968 26.6405 33.4362 27.03 33.32C27.8962 33.0771 28.6587 32.5566 29.2006 31.8386C29.7425 31.1206 30.0339 30.2446 30.03 29.345V17C30.03 16.8005 29.9903 16.6029 29.913 16.419C29.8358 16.235 29.7226 16.0683 29.5801 15.9286C29.4376 15.7889 29.2687 15.679 29.0832 15.6055C28.8978 15.5319 28.6995 15.496 28.5 15.5ZM7.5 30.5C7.10218 30.5 6.72064 30.342 6.43934 30.0607C6.15804 29.7794 6 29.3978 6 29V23.645L10.335 19.31C10.5542 19.092 10.8508 18.9696 11.16 18.9696C11.4692 18.9696 11.7658 19.092 11.985 19.31L23.19 30.5H7.5ZM27 29C26.9904 29.2905 26.8966 29.5719 26.73 29.81L19.95 23L21.015 21.95C21.1225 21.8402 21.2509 21.753 21.3926 21.6935C21.5342 21.634 21.6863 21.6033 21.84 21.6033C21.9937 21.6033 22.1458 21.634 22.2874 21.6935C22.4291 21.753 22.5575 21.8402 22.665 21.95L27 26.315V29ZM31.5 6.5H30V5C30 4.60218 29.842 4.22064 29.5607 3.93934C29.2794 3.65804 28.8978 3.5 28.5 3.5C28.1022 3.5 27.7206 3.65804 27.4393 3.93934C27.158 4.22064 27 4.60218 27 5V6.5H25.5C25.1022 6.5 24.7206 6.65804 24.4393 6.93934C24.158 7.22064 24 7.60218 24 8C24 8.39782 24.158 8.77936 24.4393 9.06066C24.7206 9.34196 25.1022 9.5 25.5 9.5H27V11C27 11.3978 27.158 11.7794 27.4393 12.0607C27.7206 12.342 28.1022 12.5 28.5 12.5C28.8978 12.5 29.2794 12.342 29.5607 12.0607C29.842 11.7794 30 11.3978 30 11V9.5H31.5C31.8978 9.5 32.2794 9.34196 32.5607 9.06066C32.842 8.77936 33 8.39782 33 8C33 7.60218 32.842 7.22064 32.5607 6.93934C32.2794 6.65804 31.8978 6.5 31.5 6.5Z" fill="#546371"/>
</g>
</svg>
