<svg width="16" height="17" viewBox="0 0 16 17" fill="none" xmlns="http://www.w3.org/2000/svg">
<g id="u:pen">
<path id="Vector" d="M14.6666 5.3266C14.6671 5.23886 14.6503 5.15188 14.6171 5.07066C14.5839 4.98943 14.535 4.91556 14.4733 4.85326L11.6466 2.0266C11.5843 1.96481 11.5104 1.91593 11.4292 1.88275C11.348 1.84957 11.261 1.83276 11.1733 1.83326C11.0855 1.83276 10.9985 1.84957 10.9173 1.88275C10.8361 1.91593 10.7622 1.96481 10.6999 2.0266L8.81326 3.91326L1.5266 11.1999C1.46481 11.2622 1.41593 11.3361 1.38275 11.4173C1.34957 11.4985 1.33276 11.5855 1.33326 11.6733V14.4999C1.33326 14.6767 1.4035 14.8463 1.52853 14.9713C1.65355 15.0964 1.82312 15.1666 1.99993 15.1666H4.8266C4.91988 15.1717 5.01319 15.1571 5.10048 15.1238C5.18776 15.0905 5.26707 15.0392 5.33326 14.9733L12.5799 7.6866L14.4733 5.83326C14.5341 5.76865 14.5837 5.69428 14.6199 5.61326C14.6264 5.56012 14.6264 5.5064 14.6199 5.45326C14.623 5.42223 14.623 5.39096 14.6199 5.35993L14.6666 5.3266ZM4.55326 13.8333H2.6666V11.9466L9.2866 5.3266L11.1733 7.21326L4.55326 13.8333ZM12.1133 6.27326L10.2266 4.3866L11.1733 3.4466L13.0533 5.3266L12.1133 6.27326Z" fill="white"/>
</g>
</svg>
